<svg id="Layer_1" data-name="Layer 1" xmlns="http://www.w3.org/2000/svg" width="293.61177" height="84.66056" viewBox="0 0 293.61177 84.66056"><defs><style>.cls-1{fill:#057049;}.cls-2{fill:#fff;}</style></defs><title>KAR_Global_Logo_rball-horizontal-green</title><path class="cls-1" d="M144.52974,25.41759a.96055.96055,0,0,1,.0498-1.251l.02442-.02637,19.6953-22.81543A.78269.78269,0,0,0,163.726.00938H151.86958a2.34766,2.34766,0,0,0-1.7041.73242L129.017,23.44053a.58667.58667,0,0,1-1.01269-.4038V1.18321A1.17447,1.17447,0,0,0,126.82954.00938H116.23482A1.17447,1.17447,0,0,0,115.06,1.18321V52.49034a1.17489,1.17489,0,0,0,1.17481,1.17432h10.59472a1.17489,1.17489,0,0,0,1.17481-1.17432V41.39708a2.345,2.345,0,0,1,.65332-1.62549l5.27734-5.502a.96307.96307,0,0,1,1.44141.0581l14.58105,18.47168a2.35046,2.35046,0,0,0,1.82129.86524h11.72852a1.17448,1.17448,0,0,0,.9209-1.90284Z"/><path class="cls-1" d="M205.23775.69786a1.171,1.171,0,0,0-.99707-.68945L204.2397.003H193.37447l-.001.00538a1.171,1.171,0,0,0-.99707.68945L169.434,52.005a1.17467,1.17467,0,0,0,1.07226,1.65332h10.3086a1.957,1.957,0,0,0,1.80761-1.20947l3.78321-9.15332a1.56611,1.56611,0,0,1,1.44726-.96729h21.90821a1.56613,1.56613,0,0,1,1.44726.96729l3.7832,9.15332a1.9574,1.9574,0,0,0,1.8086,1.20947h10.30761a1.17467,1.17467,0,0,0,1.07227-1.65332Zm.19629,30.55225H192.18013a.78318.78318,0,0,1-.72363-1.082l6.62793-15.27295c.3623-.85693,1.08008-.85693,1.44629,0l6.62695,15.273A.7828.7828,0,0,1,205.434,31.25011Z"/><path class="cls-1" d="M281.84908,51.80968,271.644,37.18419a.77956.77956,0,0,1,.27929-1.14014,18.02216,18.02216,0,0,0,6.97559-6.0918,18.40532,18.40532,0,0,0,2.89844-10.376,18.78072,18.78072,0,0,0-2.8584-10.40967,18.59624,18.59624,0,0,0-8.13574-6.79053A29.90768,29.90768,0,0,0,258.4438.00011H236.41939a1.17363,1.17363,0,0,0-1.17383,1.17382V52.34434a1.30659,1.30659,0,0,0,1.31055,1.311h10.31738a1.31107,1.31107,0,0,0,1.31152-1.311V39.70958a.78313.78313,0,0,1,.78321-.78321h8.84961a1.95682,1.95682,0,0,1,1.60839.84327l8.91309,12.874A2.34757,2.34757,0,0,0,270.27,53.65538h10.61719A1.17362,1.17362,0,0,0,281.84908,51.80968ZM265.896,25.7335c-1.832,1.54248-4.56836,2.3252-8.13184,2.3252h-8.79589a.78312.78312,0,0,1-.78321-.7832V11.53575a.783.783,0,0,1,.78321-.78272h8.79589c3.56446,0,6.30079.77,8.13379,2.28858a7.35162,7.35162,0,0,1,2.72852,6.19336A8.06127,8.06127,0,0,1,265.896,25.7335Z"/><path class="cls-1" d="M121.98775,79.06212h3.4541v1.26416a4.68846,4.68846,0,0,1-2.84375.90283,4.3599,4.3599,0,0,1,0-8.71387,3.74067,3.74067,0,0,1,3.18262,1.78369l3.251-1.71582a7.08294,7.08294,0,0,0-6.43359-3.499c-4.49316,0-8.15039,3.00244-8.15039,7.78809,0,4.78613,3.65723,7.78857,8.15039,7.78857a8.698,8.698,0,0,0,6.65918-2.93506V75.8336h-7.26953Z"/><polygon class="cls-1" points="150.954 69.332 147.071 69.332 147.071 84.39 157.003 84.39 157.003 81.004 150.954 81.004 150.954 69.332"/><path class="cls-1" d="M182.03169,69.08409c-4.60547,0-8.05957,3.20557-8.05957,7.78809s3.4541,7.78857,8.05957,7.78857,8.03711-3.20606,8.03711-7.78857S186.63716,69.08409,182.03169,69.08409Zm0,12.145a4.36592,4.36592,0,1,1,4.08594-4.35693A4.07492,4.07492,0,0,1,182.03169,81.22911Z"/><path class="cls-1" d="M218.38326,76.62413A3.3639,3.3639,0,0,0,220.9565,73.17c0-1.89649-1.42188-3.83789-4.40137-3.83789h-8.5332V84.38975h8.80371c2.957,0,4.4248-1.89648,4.4248-4.08642A3.60578,3.60578,0,0,0,218.38326,76.62413Zm-6.47852-4.06348h3.76952a1.257,1.257,0,0,1,1.332,1.28662,1.27466,1.27466,0,0,1-1.332,1.30909h-3.76952ZM215.81,81.16124h-3.90527V78.36241H215.81a1.39228,1.39228,0,0,1,1.48925,1.42187A1.34765,1.34765,0,0,1,215.81,81.16124Z"/><path class="cls-1" d="M244.021,69.33214l-5.667,15.05761h4.22168l.76758-2.28027h6.25293l.76757,2.28027h4.22168l-5.68847-15.05761Zm.33789,9.5039,2.09961-6.11767,2.12207,6.11767Z"/><polygon class="cls-1" points="275.853 69.332 271.97 69.332 271.97 84.39 281.903 84.39 281.903 81.004 275.853 81.004 275.853 69.332"/><path class="cls-1" d="M285.49068,83.21446a1.72675,1.72675,0,0,0,1.26562.55176c.5752,0,.80371-.28174.80371-.54541,0-.35987-.42578-.46778-.91211-.59375-.65332-.16211-1.42089-.354-1.42089-1.19971,0-.65918.582-1.16894,1.457-1.16894a2.07879,2.07879,0,0,1,1.499.55761l-.40137.52149a1.62763,1.62763,0,0,0-1.15722-.45557c-.41407,0-.67774.19775-.67774.49756,0,.312.40723.41406.88086.53369.66016.168,1.44531.37207,1.44531,1.24121,0,.666-.46777,1.23535-1.54687,1.23535a2.14073,2.14073,0,0,1-1.625-.63525Z"/><polygon class="cls-1" points="292.377 81.29 291.148 84.318 290.848 84.318 289.624 81.29 289.624 84.318 288.923 84.318 288.923 80.318 289.913 80.318 290.998 83.011 292.089 80.318 293.079 80.318 293.079 84.318 292.377 84.318 292.377 81.29"/><path class="cls-1" d="M81.15376.34825H3a3.00015,3.00015,0,0,0-3,3V81.50157a3.00015,3.00015,0,0,0,3,3H81.15376a3.00046,3.00046,0,0,0,3-3V3.34825A3.00046,3.00046,0,0,0,81.15376.34825ZM14.87593,32.67064v-9.4433a2.02458,2.02458,0,0,1,1.09882-1.80646l7.556-3.85535v.01532L27.66005,15.474a1.2,1.2,0,0,1,1.73938,1.08423v9.44287a2.16675,2.16675,0,0,1-1.11578,1.8598L23.52,30.29112V30.276L16.61275,33.8004a1.19859,1.19859,0,0,1-1.73682-1.083Zm1.07813,7.13684L64.64168,15.09129A1.19968,1.19968,0,0,1,66.378,16.17668v9.44751a2.027,2.027,0,0,1-.69275,1.52234,1.98862,1.98862,0,0,1-.47388.3399l-48.60205,24.669A1.19843,1.19843,0,0,1,14.875,51.07432l-.00006-.01983-.00048-.00379-.02381-9.4295A2.02606,2.02606,0,0,1,15.95406,39.80748ZM68.07369,69.68266a1.211,1.211,0,0,1-.64747-.13177L43.1274,57.36876a2.67992,2.67992,0,0,0-2.09644-.00171L16.72951,69.5507a1.21226,1.21226,0,0,1-.627.1355,1.30733,1.30733,0,0,1-1.28711-1.19733v-.00134l.00165-.31073.04181-7.91644c-.00171-.111-.00445-.22235-.006-.334a2.04553,2.04553,0,0,1,1.0705-2.01422L41.05568,45.38774a2.14524,2.14524,0,0,1,2.11023,0L68.29823,57.91209A2.19718,2.19718,0,0,1,69.3633,60.2484l.0437,8.23913A1.30965,1.30965,0,0,1,68.07369,69.68266Z"/><path class="cls-2" d="M70.66417,12.28745a1.73528,1.73528,0,1,1-1.73528,1.73528A1.74172,1.74172,0,0,1,70.66417,12.28745Zm0,3.07961a1.34433,1.34433,0,1,0-1.34433-1.34433A1.34619,1.34619,0,0,0,70.66417,15.36706Zm-.69925-.47306V13.10371h.73388c.49372,0,.66518.29489.66518.54175a.52313.52313,0,0,1-.38425.53505l.47361.71349h-.40492l-.439-.66546h-.28819V14.894Zm.65848-.96733c.26752,0,.38369-.0821.38369-.27423,0-.16476-.12343-.24016-.34962-.24016h-.33622v.51439Z"/></svg>